<svg xmlns="http://www.w3.org/2000/svg" xmlns:xlink="http://www.w3.org/1999/xlink" viewBox="0 0 1809.12 1190.25"><defs><style>.cls-1{fill:#fa364d;}.cls-2,.cls-3,.cls-4{fill:#f99e82;}.cls-5{fill:#0086ff;}.cls-6,.cls-7,.cls-8{fill:#fff;}.cls-9{fill:#fff2e3;}.cls-10{fill:#f39100;}.cls-11,.cls-12,.cls-13{fill:#ffd4b3;}.cls-14{fill:#64bdff;}.cls-15{fill:#b3deff;}.cls-16{fill:#bad4f4;}.cls-17{fill:#bcbcbc;}.cls-18{fill:#22a2ff;}.cls-19{fill:#23575d;}.cls-20{fill:#0f3871;}.cls-21{fill:#0f0f0f;}.cls-22{fill:#590c0c;}.cls-23{fill:#5e98ff;}.cls-24{fill:url(#linear-gradient-4);}.cls-24,.cls-25,.cls-26,.cls-27,.cls-12,.cls-28,.cls-29,.cls-30{mix-blend-mode:multiply;}.cls-25{fill:url(#linear-gradient-2);}.cls-26{fill:url(#linear-gradient-3);}.cls-27{fill:#83a1b7;}.cls-28{fill:#e8a695;}.cls-31{fill:url(#radial-gradient-3);}.cls-32{fill:url(#radial-gradient-4);}.cls-33{fill:url(#radial-gradient-2);}.cls-3{stroke:#db5d3b;}.cls-3,.cls-34,.cls-35,.cls-36,.cls-37{stroke-miterlimit:10;}.cls-38{fill:#f8faff;opacity:.2;}.cls-34{opacity:.7;stroke:#ffc55e;}.cls-34,.cls-35,.cls-36,.cls-37{fill:none;}.cls-35{stroke:#414042;}.cls-35,.cls-4{strokeWidth:2px;}.cls-36{stroke:#fff;}.cls-37{stroke:#ddb6c0;}.cls-30{fill:url(#linear-gradient);}.cls-39{fill:url(#radial-gradient);}.cls-4{stroke:#e5785c;stroke-linecap:round;stroke-linejoin:round;}.cls-40{isolation:isolate;}.cls-7{opacity:.62;}.cls-13{opacity:.55;}.cls-8{opacity:.77;}</style><linearGradient id="linear-gradient" x1="96.54" y1="1134.37" x2="262.05" y2="1134.37" gradientUnits="userSpaceOnUse"><stop offset="0" stop-color="#d6edff"></stop><stop offset=".4" stop-color="#d8eeff"></stop><stop offset=".65" stop-color="#e1f1ff"></stop><stop offset=".85" stop-color="#eff8ff"></stop><stop offset="1" stop-color="#fff"></stop></linearGradient><linearGradient id="linear-gradient-2" x1="1601.67" y1="1102.06" x2="1809.12" y2="1102.06" xlink:href="#linear-gradient"></linearGradient><radialGradient id="radial-gradient" cx="790.26" cy="184.25" fx="790.26" fy="184.25" r="1100.35" gradientTransform="translate(-125.08 -76.68) scale(1.15 1.1)" gradientUnits="userSpaceOnUse"><stop offset="0" stop-color="#f6f7fc"></stop><stop offset=".31" stop-color="#f3f5fc"></stop><stop offset=".51" stop-color="#eaf1fc"></stop><stop offset=".68" stop-color="#dbeafc"></stop><stop offset=".83" stop-color="#c6e0fc"></stop><stop offset=".97" stop-color="#abd3fc"></stop><stop offset="1" stop-color="#a6d1fc"></stop></radialGradient><linearGradient id="linear-gradient-3" x1="75.45" y1="1072.66" x2="1737.59" y2="1072.66" gradientUnits="userSpaceOnUse"><stop offset="0" stop-color="#fff"></stop><stop offset=".15" stop-color="#eff8ff"></stop><stop offset=".35" stop-color="#e1f1ff"></stop><stop offset=".6" stop-color="#d8eeff"></stop><stop offset="1" stop-color="#d6edff"></stop></linearGradient><radialGradient id="radial-gradient-2" cx="148.17" cy="695.7" fx="148.17" fy="695.7" r="68.38" gradientTransform="matrix(1, 0, 0, 1, 0, 0)" xlink:href="#radial-gradient"></radialGradient><radialGradient id="radial-gradient-3" cx="439.02" cy="211.3" fx="439.02" fy="211.3" r="52.18" gradientTransform="matrix(1, 0, 0, 1, 0, 0)" xlink:href="#radial-gradient"></radialGradient><radialGradient id="radial-gradient-4" cx="1302.94" cy="120.41" fx="1302.94" fy="120.41" r="97.4" gradientTransform="matrix(1, 0, 0, 1, 0, 0)" xlink:href="#radial-gradient"></radialGradient><linearGradient id="linear-gradient-4" x1="349.97" y1="1172.98" x2="593.1" y2="1172.98" xlink:href="#linear-gradient"></linearGradient></defs><g class="cls-40"><g id="Layer_4"><g><path class="cls-30" d="M249.56,1125.83c18.07,1.44,17.91,14.95-9.5,14.66-18.63-.19-36.59,.05-54.49-1.58-21.12-1.92-28.38,5.29-43.95,5.33-16.96,.05-44.95-2.62-45.08-7.45-.15-5.72,26.72-10.2,82.28-11.68,55.56-1.47,62.27,.04,70.74,.72Z"></path><path class="cls-25" d="M1793.5,1093.05c22.63,1.32,22.35,14.83-12,14.73-23.34-.07-45.86,.3-68.27-1.21-26.46-1.78-35.6,5.48-55.11,5.63-21.25,.16-56.32-2.32-56.45-7.15-.15-5.72,33.55-10.38,103.19-12.23,69.64-1.85,78.03-.38,88.64,.24Z"></path><path class="cls-39" d="M21.05,1065.1H1757.06c-64.45-118.43-263.28-261.01-260.31-458.26,3.71-246.96,177.39-357.99,156.65-454.73-80.12-373.7-475.32,110.92-948.67-84.54C4.5-221.58,243.65,500.88,85.81,663.26c-160.04,164.65-42.93,167.29-64.76,401.84Z"></path><path class="cls-26" d="M86.82,1074.01c-38.93,1.01-16.24,17.32,706.2,12.59,49.55-.32,133.54,4.73,189.48,3.61,385.26-7.68,755.08,1.73,755.08-13.58,0-13.46-673.04-32.19-952.6-14.37-113.6,7.24-605.5,9.35-698.17,11.76Z"></path><path class="cls-11" d="M1738.5,1026.5c-10.73,13.12-29.35,22.33-38.51,10.51-8.65-11.16-1.84-35.66,9.43-48.02,26.54-29.08,63-22.87,63-22.87-13.23,16.16-23.19,47.26-33.92,60.38Z"></path><path class="cls-12" d="M1699.99,1037c-8.65-11.16-1.84-35.66,9.43-48.02,26.54-29.08,63-22.87,63-22.87-55.05,26.78-72.43,70.89-72.43,70.89Z"></path><g class="cls-29"><path class="cls-11" d="M1703.48,1028.95s.61-1.05,1.71-2.96c.54-.96,1.21-2.12,2.07-3.4,.84-1.29,1.75-2.81,2.88-4.35,.55-.78,1.13-1.61,1.74-2.46,.61-.85,1.29-1.68,1.96-2.56,1.33-1.8,2.88-3.56,4.47-5.46,3.25-3.69,6.95-7.52,10.98-11.27,8.08-7.44,15.79-13.24,21.39-17.37,5.62-4.06,9.1-6.58,9.1-6.58,0,0-3.57,2.2-9.26,6.06-5.68,3.88-13.51,9.45-21.66,16.95-4.06,3.77-7.77,7.71-11,11.5-1.57,1.96-3.1,3.78-4.42,5.64-.67,.92-1.33,1.78-1.93,2.65-.59,.88-1.15,1.73-1.69,2.55-1.1,1.59-1.98,3.16-2.78,4.5-.82,1.33-1.46,2.52-1.97,3.51-1.03,1.96-1.6,3.05-1.6,3.05Z"></path></g><path class="cls-11" d="M1724.39,1028.65c-9.07,37.67-30.17,71.75-47.05,50.78-15.93-19.79-16.61-81.04-6.52-117.32,23.75-85.39,74.71-96.18,74.71-96.18-11.17,46.41-12.08,125.04-21.15,162.71Z"></path><path class="cls-11" d="M1638.34,1063.29c10.42,10.25,28.15,14.24,36.47-.47,7.85-13.88,.84-36.89-10.07-46.21-25.68-21.94-59.8-5.03-59.8-5.03,12.84,12.64,22.99,41.44,33.41,51.7Z"></path><path class="cls-12" d="M1674.81,1062.83c7.85-13.88,.84-36.89-10.07-46.21-25.68-21.94-59.8-5.03-59.8-5.03,52.43,11.32,69.88,51.23,69.88,51.23Z"></path><g class="cls-29"><path class="cls-11" d="M1671.33,1055.63s-.6-.9-1.68-2.52c-.53-.82-1.19-1.81-2.03-2.87-.82-1.07-1.71-2.36-2.82-3.6-.54-.64-1.1-1.31-1.69-2.01-.6-.68-1.25-1.34-1.91-2.04-1.3-1.45-2.8-2.79-4.34-4.27-3.15-2.82-6.73-5.65-10.6-8.3-7.78-5.24-15.18-8.91-20.55-11.5-5.39-2.51-8.72-4.06-8.72-4.06,0,0,3.41,1.21,8.85,3.49,5.44,2.3,12.94,5.71,20.79,10.99,3.91,2.67,7.5,5.6,10.63,8.53,1.53,1.54,3.01,2.95,4.29,4.46,.65,.74,1.29,1.43,1.88,2.15,.57,.73,1.13,1.43,1.65,2.1,1.08,1.3,1.94,2.65,2.73,3.78,.8,1.12,1.43,2.15,1.94,3.01,1.02,1.7,1.58,2.64,1.58,2.64Z"></path></g><path class="cls-11" d="M1677.35,1079.43c-15.93-19.79-16.61-81.04-6.52-117.32,23.75-85.39,74.71-96.18,74.71-96.18-62.59,99.72-68.19,213.49-68.19,213.49Z"></path><path class="cls-12" d="M1677.35,1079.43c-15.93-19.79-16.61-81.04-6.52-117.32,23.75-85.39,74.71-96.18,74.71-96.18-62.59,99.72-68.19,213.49-68.19,213.49Z"></path><g class="cls-29"><path class="cls-11" d="M1678.79,1058.44s.39-2.85,1.1-8.01c.33-2.59,.77-5.73,1.4-9.28,.6-3.56,1.21-7.69,2.11-12.03,.42-2.19,.87-4.48,1.33-6.88,.48-2.37,1.05-4.76,1.59-7.27,1.06-5.08,2.42-10.19,3.77-15.68,2.86-10.75,6.26-22.15,10.13-33.56,7.79-22.74,15.75-41.44,21.55-54.82,5.87-13.25,9.5-21.45,9.5-21.45,0,0-3.87,7.55-9.91,20.36-6.01,12.86-14.22,31.12-22.08,54.04-3.9,11.5-7.28,23.13-10.06,34.13-1.32,5.61-2.63,10.85-3.64,16.05-.52,2.58-1.06,5.02-1.51,7.45-.43,2.45-.84,4.79-1.24,7.04-.83,4.44-1.37,8.66-1.91,12.3-.56,3.62-.94,6.82-1.22,9.46-.59,5.24-.92,8.14-.92,8.14Z"></path></g><path class="cls-5" d="M1745.64,1104.1c-.42-16.11-1.7-29.57-23.83-33.52-6.53-1.17-18.72,.7-23.67,4.37-19.98-17.41-32.54-29.99-53.62-29.99-24.46,0-33.84,21.32-33.84,45.77,0,4.66,.72,9.15,2.06,13.37h132.9Z"></path><path class="cls-13" d="M1526.93,695.7V206.43c-79.45,35.03-134.72,199.18-199.94,341.5-65.22,142.32-191.51,88.43-257.6,65.05h0c-324.31-141.16-389.86,254.61-589.33,230.84-268.12-31.96-384.04,219.9-384.04,219.9l242.6-44.28s590.34-206.51,769.63-216.08c179.29-9.57,394.66-122.17,418.68-107.67Z"></path><line class="cls-34" x1="446.03" y1="837.16" x2="446.03" y2="982.67"></line><line class="cls-34" x1="596.02" y1="808.43" x2="596.02" y2="933.93"></line><line class="cls-34" x1="755.02" y1="655.46" x2="755.02" y2="916.59"></line><line class="cls-34" x1="1046.69" y1="604.69" x2="1046.69" y2="933.93"></line><line class="cls-34" x1="1205.68" y1="662.01" x2="1205.68" y2="933.93"></line><line class="cls-34" x1="1375.67" y1="432.27" x2="1375.67" y2="740.56"></line><path class="cls-7" d="M1526.93,1063.73v-368.03s-143.53,0-350,180.55c-215.87,188.77-367.04-88.06-565.3,34.97-217.51,134.98-515.61,152.51-515.61,152.51H1526.93Z"></path><line class="cls-37" x1="532.15" y1="950.62" x2="532.15" y2="1062.1"></line><line class="cls-37" x1="682.15" y1="882.13" x2="682.15" y2="1062.1"></line><line class="cls-37" x1="1132.8" y1="908.6" x2="1132.8" y2="1062.1"></line><line class="cls-37" x1="1291.8" y1="791.33" x2="1291.8" y2="1062.1"></line><line class="cls-37" x1="1456.25" y1="711.21" x2="1456.25" y2="1049.6"></line><line class="cls-37" x1="986.3" y1="944.7" x2="986.3" y2="1062.28"></line><path class="cls-10" d="M96.27,1071.05l-.49-14.64c2.97-.17,299.53-19.02,513.52-151.82,93.06-57.74,177.14-28.69,258.46-.59,94.24,32.55,191.68,66.22,306.14-33.87,107.25-93.79,197.32-138.19,253.99-158.92,61.7-22.57,97.55-22.83,99.04-22.83v14.64c-1.42,0-144.53,2.32-346.96,179.33-118.56,103.69-218.43,69.18-314.99,35.82-83.08-28.7-161.55-55.82-251-.31-216.01,134.04-514.72,153.02-517.71,153.2Z"></path><line class="cls-34" x1="900.18" y1="586.6" x2="900.18" y2="950.07"></line><line class="cls-36" x1="841.14" y1="903.24" x2="841.14" y2="1062.1"></line><path class="cls-11" d="M100.74,1067.76l-9.42-7.62c1.21-2.62,30.29-64.93,92.98-124.09,57.78-54.52,156.07-115.99,296.26-99.29,79.58,9.48,138.5-50.89,200.89-114.8,91.6-93.84,195.4-200.19,389.52-115.78,3.15,1.12,6.44,2.3,9.85,3.53,67.9,24.46,181.56,65.39,241.46-65.36,12.69-27.68,25.15-56.56,37.21-84.49,51.3-118.83,99.76-231.07,165.71-260.15l3.48,13.9c-61.95,27.31-109.39,137.2-159.61,253.53-12.09,28.01-24.59,56.98-37.35,84.82-27.91,60.89-70.28,93.81-125.95,97.82-46.5,3.34-93.52-13.57-127.84-25.94-3.45-1.25-6.77-2.44-9.95-3.56l-.3-.12c-188.65-82.1-290.03,21.76-379.48,113.39-59.54,60.99-116.02,118.85-190.9,118.85-5.79,0-11.69-.34-17.72-1.06-136.83-16.31-232.61,43.55-288.87,96.63-60.87,57.44-89.68,119.17-89.96,119.79Z"></path><polygon class="cls-27" points="1333.77 517.43 1324.25 354.86 527.05 354.86 527.05 382.44 386.64 382.44 385.38 926.32 837.01 926.32 816.28 985.34 774.65 1029.41 925.07 1039.28 952.14 926.32 1366.38 926.32 1367.5 441.3 1333.77 517.43"></polygon><path class="cls-11" d="M1530.63,229.46c3.4-7.8,13.74-32.23,13.74-32.23,1.59-3.73,.27-6.77-2.96-6.78,0,0-19.7-.65-27.92-.21-3.9,.21-7.79,1.7,1.59,23.15,9.52,21.77,13.21,21.43,15.55,16.07Z"></path><path class="cls-10" d="M1525.96,717.16c5.65-4.99,23.09-20.81,23.09-20.81,2.67-2.4,2.49-5.9-.39-7.83,0,0-17.44-12.16-24.95-16.6-3.57-2.11-7.55-3.06-6.32,21.69,1.25,25.11,4.68,26.97,8.57,23.56Z"></path><g><path class="cls-11" d="M731.93,406.71l57.86-40.94c-.26-.12-.5-.27-.76-.39-8.69-3.82-17.56-6.78-26.22-9.99-.43,.1-.91,.1-1.42-.08-7.24-2.46-14.53-4.45-22.16-2.85-5.46,1.15-10.59,3.37-16.1,4.39-16.6,3.07-33.74-.7-44.58-14.27-2.05-2.57,1.89-5.81,3.95-3.23,11.74,14.69,31.15,15.69,48.04,10.41,4.81-1.5,9.17-2.31,13.46-2.48-7.39-3.86-14.32-8.62-20.51-15.16-2.26-2.39,1.69-5.62,3.96-3.23,18.13,19.15,44.19,22.84,67.19,33.43l.1-.07c-2.38-4.26-4.19-8.89-5.32-13.78-2.82-12.08-.21-28.67-13.25-35.38-2.89-1.48-1.18-6.3,1.74-4.81,10.81,5.57,13.46,15.82,14.82,27.15,1.02,8.56,2.85,16.6,6.46,23.67l49.74-35.2c-11.72-12.51-8.14-33.93-59.31-45.74-22.94-5.3-76.44-15.43-88.46-24.96-10.83-9.74-37.31-28.15-50.11-18.73-21.22,15.62,4.51,43.04,2.02,59.76-9,60.64,41.33,94.59,62.73,103.71,6.23,2.65,11.56,5.6,16.12,8.75Z"></path><path class="cls-6" d="M794.75,362.25l4.45-3.15c-3.61-7.07-5.44-15.11-6.46-23.67-1.36-11.33-4.01-21.58-14.82-27.15-2.92-1.49-4.63,3.32-1.74,4.81,13.04,6.71,10.42,23.3,13.25,35.38,1.13,4.89,2.94,9.52,5.32,13.78Z"></path><path class="cls-6" d="M723.12,356.85c5.52-1.02,10.64-3.24,16.1-4.39,7.63-1.6,14.92,.39,22.16,2.85,.51,.18,.99,.18,1.42,.08,8.66,3.21,17.53,6.17,26.22,9.99,.26,.12,.5,.27,.76,.39l4.86-3.44c-23.01-10.59-49.07-14.28-67.19-33.43-2.26-2.38-6.22,.84-3.96,3.23,6.19,6.53,13.12,11.3,20.51,15.16-4.29,.17-8.65,.98-13.46,2.48-16.89,5.28-36.3,4.28-48.04-10.41-2.06-2.59-6.01,.66-3.95,3.23,10.83,13.57,27.97,17.34,44.58,14.27Z"></path></g><g><path class="cls-11" d="M1219.16,371.62c.29-1.3,.59-2.6,.89-3.9-.15-.41-.21-.88-.1-1.42,1.54-7.49,2.61-14.96,.07-22.34-1.82-5.27-4.66-10.09-6.36-15.43-5.11-16.09-3.5-33.57,8.62-46.01,2.29-2.35,6,1.16,3.69,3.53-13.12,13.47-11.7,32.86-4.36,48.96,2.08,4.58,3.42,8.81,4.13,13.05,2.91-7.81,6.78-15.28,12.49-22.24,2.1-2.54,5.79,.98,3.7,3.53-10.26,12.47-14.39,27.19-17.81,42.26h77.11c2.37-26.43,5.84-66.7,12.55-77.73,8.32-11.96,23.3-40.52,12.36-52.05-18.13-19.11-42.15,9.82-59.05,9.42-61.29-1.4-88.72,52.77-95.11,75.13-8.03,28.14-23.55,40.34-38.6,45.24h85.79Z"></path><path class="cls-6" d="M1220.02,343.97c2.54,7.38,1.47,14.85-.07,22.34-.11,.54-.05,1,.1,1.42-.3,1.29-.6,2.6-.89,3.9h4.96c3.42-15.08,7.55-29.79,17.81-42.26,2.08-2.54-1.6-6.07-3.7-3.53-5.71,6.96-9.58,14.43-12.49,22.24-.71-4.24-2.05-8.47-4.13-13.05-7.34-16.1-8.75-35.49,4.36-48.96,2.31-2.37-1.4-5.87-3.69-3.53-12.12,12.44-13.73,29.92-8.62,46.01,1.7,5.35,4.54,10.16,6.36,15.43Z"></path></g><g><path class="cls-15" d="M692.86,163.54c-6.55,60.95,45.12,92.84,66.86,101.09,50.1,18.98,44.92,58.51,41.12,74.26-1.9,7.87-.57,19.88,3.88,32.72h127.66c-3.1-3.59-6.15-7.21-9.08-10.87-7.7-9.6-13.93-20.33-18.84-31.59-1.14-2.61-2.14-5.26-3.07-7.94-.29-.31-.52-.7-.63-1.21-.22-1-.48-1.97-.74-2.92-.16-.48-.31-.97-.46-1.45-9.99-30.91-47.6-32.98-72.12-15.54-2.65,1.88-6.08-1.91-3.4-3.82,13.65-9.7,31.22-15.2,47.97-11.69,8.99,1.89,16.49,6.11,22.22,12.08-.65-2.37-1.33-4.75-2.05-7.1-3.97-12.94-15.21-24.18-24.17-34.03-4.33-4.76-9.01-9.24-14.03-13.25-.09-.04-.17-.07-.25-.11-2.63-1.57-5.06-3.37-7.3-5.35-4.66-3.04-9.61-5.65-14.84-7.71-8.83-3.47-17.82-6.06-26.6-8.93-.43,.12-.9,.13-1.42-.02-7.33-2.17-14.69-3.86-22.26-1.95-5.41,1.37-10.44,3.8-15.91,5.04-16.47,3.74-33.75,.66-45.12-12.46-2.15-2.48,1.66-5.89,3.82-3.38,12.32,14.2,31.76,14.42,48.42,8.46,4.74-1.69,9.07-2.67,13.35-3.02-7.54-3.55-14.66-8.04-21.11-14.32-2.36-2.3,1.47-5.68,3.83-3.39,18.88,18.41,45.08,21.04,68.5,30.69,.06,.03,.12,.06,.18,.08-2.59-4.21-4.61-8.82-5.96-13.72-3.31-11.96-1.36-28.64-14.67-34.82-2.94-1.36-1.43-6.25,1.55-4.87,11.02,5.14,14.09,15.27,15.9,26.53,2.08,12.93,5.89,24.65,15.01,33.28,6.51,4.32,12.47,9.55,18.01,14.94,8.73,8.48,17.71,18.58,24.27,28.87,6.86,10.75,9.31,24,12.48,36.23,.72,1.97,1.32,4.03,1.8,6.15,3.75,11.34,9.74,22.25,16.39,31.98,4.02,5.88,8.67,11.27,13.41,16.6-3.03-12.95-.43-27.26,6.09-39.3,2.56-4.73,6.04-8.95,9.88-12.69,5.67-5.49,12.97-8.97,17.87-15.31,10.78-13.91-2.57-28.79-9.39-40.62-1.65-2.85,2.92-5.14,4.56-2.3,5.84,10.12,13.91,19.23,13.81,31.52-.11,15.29-13.61,21.6-23.45,30.54-14.21,12.9-19.54,35.19-12.42,52.69h42.76c15.91-23.4,24.57-50.63,22.32-76.66-8.34-96.63-76.81-89.29-110.62-104.8-21.5-9.86-8.51-36.93-68.19-48.19-23.14-4.37-77-12.33-89.39-21.37-11.22-9.29-38.42-26.62-50.83-16.69-20.57,16.46,6.24,42.82,4.42,59.63Z"></path><path class="cls-14" d="M872.51,260.48c7.91,8.63,16.32,18.26,19.65,29.09,.72,2.35,1.4,4.72,2.05,7.1-5.73-5.97-13.23-10.19-22.22-12.08-3.03-.63-6.08-.88-9.14-.95,.37-1.17,.77-2.4,1.24-3.81,2.42-7.31,5.19-13.62,8.41-19.35Z"></path><path class="cls-14" d="M864.93,338.78c1.53,11.15,1.88,22.1,1.25,32.84h66.2c-3.1-3.59-6.15-7.21-9.08-10.87-7.7-9.6-13.93-20.33-18.84-31.59-1.14-2.61-2.14-5.26-3.07-7.94-.29-.31-.52-.7-.63-1.21-.22-1-.48-1.97-.74-2.92-.16-.48-.31-.97-.46-1.45-5.91-18.3-21.51-26.42-38.33-26.44-1.38,5.27-1.42,8.19-1.14,14.63,.5,11.66,3.27,23.4,4.86,34.95Z"></path><path class="cls-14" d="M903.84,312.37c.72,1.97,1.32,4.03,1.8,6.15,3.75,11.34,9.74,22.25,16.39,31.98,4.02,5.88,8.67,11.27,13.41,16.6-3.03-12.95-.43-27.26,6.09-39.3,2.56-4.73,6.04-8.95,9.88-12.69,5.67-5.49,12.97-8.97,17.87-15.31,10.78-13.91-2.57-28.79-9.39-40.62-1.65-2.85,2.92-5.14,4.56-2.3,5.84,10.12,13.91,19.23,13.81,31.52-.11,15.29-13.61,21.6-23.45,30.54-14.21,12.9-19.54,35.19-12.42,52.69h42.76c15.91-23.4,24.57-50.63,22.32-76.66-6.22-72.03-45.84-86.29-79.63-95.3-14.94,14.45-30.03,28.76-43.71,44.45-3.24,3.72-6.16,7.55-8.81,11.68,5.9,6.41,11.54,13.31,16.03,20.35,6.86,10.75,9.31,24,12.48,36.23Z"></path><path class="cls-6" d="M765.37,223.27c5.47-1.24,10.5-3.67,15.91-5.04,7.56-1.9,14.92-.22,22.26,1.95,.52,.16,.99,.14,1.42,.02,8.78,2.86,17.77,5.46,26.6,8.93,5.24,2.06,10.18,4.67,14.84,7.71,2.24,1.98,4.67,3.78,7.3,5.35,.08,.05,.17,.08,.25,.11,5.02,4.01,9.7,8.49,14.03,13.25,8.95,9.84,20.2,21.08,24.17,34.03,.72,2.35,1.4,4.72,2.05,7.1-5.73-5.97-13.23-10.19-22.22-12.08-16.75-3.51-34.31,1.99-47.97,11.69-2.68,1.92,.75,5.7,3.4,3.82,24.52-17.44,62.12-15.37,72.12,15.54,.15,.48,.31,.97,.46,1.45,.27,.95,.52,1.92,.74,2.92,.11,.51,.34,.9,.63,1.21,.93,2.68,1.93,5.33,3.07,7.94,4.91,11.26,11.14,21.99,18.84,31.59,2.93,3.65,5.98,7.28,9.08,10.87h10.01c-7.11-17.5-1.79-39.79,12.42-52.69,9.84-8.93,23.33-15.24,23.45-30.54,.1-12.29-7.98-21.4-13.81-31.52-1.64-2.84-6.21-.55-4.56,2.3,6.83,11.83,20.17,26.72,9.39,40.62-4.9,6.34-12.2,9.82-17.87,15.31-3.85,3.74-7.32,7.96-9.88,12.69-6.53,12.04-9.12,26.35-6.09,39.3-4.73-5.33-9.39-10.71-13.41-16.6-6.65-9.73-12.64-20.64-16.39-31.98-.48-2.12-1.08-4.18-1.8-6.15-3.17-12.23-5.62-25.48-12.48-36.23-6.56-10.28-15.54-20.39-24.27-28.87-5.54-5.39-11.5-10.62-18.01-14.94-9.13-8.62-12.93-20.34-15.01-33.28-1.81-11.26-4.87-21.39-15.9-26.53-2.98-1.38-4.49,3.51-1.55,4.87,13.3,6.18,11.36,22.87,14.67,34.82,1.35,4.9,3.37,9.51,5.96,13.72-.06-.02-.12-.05-.18-.08-23.42-9.65-49.61-12.29-68.5-30.69-2.36-2.29-6.18,1.09-3.83,3.39,6.45,6.28,13.57,10.76,21.11,14.32-4.28,.35-8.61,1.33-13.35,3.02-16.66,5.96-36.1,5.74-48.42-8.46-2.16-2.5-5.97,.9-3.82,3.38,11.38,13.12,28.66,16.19,45.12,12.46Z"></path></g><g><path class="cls-11" d="M906.91,371.62h64.23c-1.88-4.12-3.8-8.2-5.65-12.28-.37-.23-.7-.57-.94-1.06-3.35-6.88-7.07-13.45-13.57-17.74-4.66-3.07-9.84-5.15-14.45-8.35-13.87-9.63-23.25-24.46-21.24-41.71,.38-3.26,5.47-2.74,5.08,.54-2.17,18.68,10.78,33.18,26.41,41.46,4.45,2.36,8.09,4.89,11.24,7.82-2.46-7.96-3.95-16.24-3.67-25.24,.11-3.29,5.18-2.75,5.08,.53-.66,20.62,8.81,38.03,17.12,56.03h13.78c6.9-9.85,18.79-19.34,14.63-32.54-.98-3.1,3.65-5.27,4.64-2.15,3.65,11.6-1.76,20.7-8.86,29.63-1.32,1.67-2.57,3.36-3.76,5.05h57.45c1.09-10.86-1.35-25.17-15.2-47.56-12.38-20.03-42.84-65.16-44.52-80.4-.71-14.55-6.26-46.32-21.97-48.78-26.03-4.09-27.4,33.49-41.04,43.49-49.41,36.28-38.1,95.94-29.53,117.55,2.21,5.57,3.74,10.79,4.74,15.7Z"></path><path class="cls-6" d="M990.32,371.62h6.65c1.2-1.7,2.44-3.38,3.76-5.05,7.09-8.93,12.5-18.03,8.86-29.63-.99-3.13-5.62-.95-4.64,2.15,4.16,13.2-7.73,22.69-14.63,32.54Z"></path><path class="cls-6" d="M936.51,332.19c4.61,3.2,9.79,5.28,14.45,8.35,6.51,4.3,10.23,10.87,13.57,17.74,.24,.5,.57,.83,.94,1.06,1.85,4.08,3.77,8.15,5.65,12.28h5.4c-8.31-18-17.79-35.41-17.12-56.03,.1-3.29-4.97-3.83-5.08-.53-.28,9,1.21,17.27,3.67,25.24-3.15-2.93-6.79-5.46-11.24-7.82-15.64-8.28-28.59-22.78-26.41-41.46,.39-3.28-4.69-3.8-5.08-.54-2.01,17.25,7.37,32.08,21.24,41.71Z"></path></g><rect class="cls-20" x="377.33" y="324.42" width="962.67" height="589.57"></rect><rect class="cls-14" x="353.67" y="324.42" width="962.67" height="589.57"></rect><rect class="cls-6" x="397.56" y="341.84" width="874.89" height="535.81"></rect><polygon class="cls-14" points="869.98 1045.18 752.72 1045.18 776.38 913.99 893.63 913.99 869.98 1045.18"></polygon><path class="cls-20" d="M884.85,913.99h-108.47l-22.5,124.75c40.69-44.35,91.31-79.24,130.97-124.75Z"></path><path class="cls-20" d="M805.23,1045.18h64.74l12.64-70.11c-25.63,23.58-52.79,45.75-77.39,70.11Z"></path><path class="cls-14" d="M1001.83,1066.98c-6.25-25.37-88.06-45.44-188.12-45.44s-181.87,20.08-188.12,45.44h376.24Z"></path><path class="cls-33" d="M240.31,725.04c-2.59-4.55-7.49-7.63-13.09-7.63-3.53,0-6.75,1.22-9.31,3.23-3.45-6.94-10.59-11.72-18.86-11.72-4.06,0-7.84,1.17-11.05,3.15-5.98-9.57-16.59-15.96-28.72-15.96-2.25,0-4.44,.23-6.57,.65,.42-1.8,.66-3.67,.66-5.61,0-13.7-11.1-24.79-24.79-24.79s-24.79,11.1-24.79,24.79c0,.29,.04,.56,.04,.85-9.35,2.47-16.52,10.24-18.1,19.92-2.67-1.13-5.6-1.76-8.69-1.76-9.71,0-17.94,6.21-21.01,14.87H240.31Z"></path><path class="cls-31" d="M509.34,233.68c-1.98-3.47-5.71-5.82-9.99-5.82-2.69,0-5.15,.93-7.11,2.47-2.63-5.29-8.08-8.94-14.39-8.94-3.1,0-5.98,.89-8.43,2.41-4.57-7.3-12.66-12.18-21.92-12.18-1.71,0-3.39,.17-5.01,.49,.32-1.38,.51-2.8,.51-4.28,0-10.45-8.47-18.92-18.92-18.92s-18.92,8.47-18.92,18.92c0,.22,.03,.43,.03,.65-7.14,1.88-12.6,7.81-13.81,15.2-2.04-.86-4.27-1.34-6.63-1.34-7.41,0-13.69,4.74-16.03,11.35h140.62Z"></path><path class="cls-32" d="M1171.69,162.2c3.69-6.49,10.65-10.87,18.64-10.87,5.01,0,9.61,1.73,13.26,4.61,4.91-9.89,15.09-16.7,26.87-16.7,5.78,0,11.16,1.66,15.74,4.49,8.53-13.63,23.64-22.74,40.9-22.74,3.21,0,6.33,.33,9.37,.92-.6-2.57-.95-5.23-.95-7.99,0-19.51,15.81-35.31,35.32-35.31s35.31,15.81,35.31,35.31c0,.4-.04,.8-.05,1.21,13.31,3.51,23.52,14.59,25.78,28.37,3.81-1.61,7.99-2.5,12.39-2.5,13.83,0,25.56,8.85,29.93,21.19h-262.5Z"></path><path class="cls-17" d="M1231.19,726.27c.02,1.47-1.32,2.66-3.01,2.65-62.48-.21-124.94,.2-187.41,1.01-1.69,.02-3.08-1.16-3.1-2.65h0c-.02-1.49,1.33-2.72,3.03-2.74,62.47-.81,124.92-1.2,187.39-.97,1.68,0,3.07,1.21,3.1,2.69h0Z"></path><path class="cls-17" d="M1230.88,709.17c.03,1.48-1.31,2.66-3,2.65-62.46-.27-124.89,.08-187.35,.87-1.69,.02-3.08-1.15-3.1-2.65h0c-.02-1.49,1.33-2.71,3.03-2.74,62.44-.79,124.87-1.12,187.32-.83,1.69,0,3.08,1.22,3.1,2.69h0Z"></path><path class="cls-17" d="M1231.51,743.55c.03,1.48-1.32,2.66-3.01,2.66-62.5-.15-124.98,.32-187.48,1.15-1.69,.02-3.08-1.16-3.1-2.65h0c-.02-1.49,1.34-2.72,3.03-2.74,62.49-.82,124.96-1.27,187.46-1.1,1.69,0,3.08,1.21,3.1,2.69h0Z"></path><path class="cls-17" d="M1231.84,760.88c.03,1.48-1.32,2.67-3.01,2.66-62.52-.09-125.03,.44-187.55,1.28-1.7,.02-3.09-1.16-3.11-2.65h0c-.02-1.49,1.34-2.71,3.03-2.74,62.51-.84,125-1.35,187.52-1.24,1.69,0,3.08,1.21,3.11,2.68h0Z"></path><path class="cls-17" d="M1232.15,778.16c.02,1.47-1.32,2.66-3.01,2.66-62.55-.03-125.07,.57-187.61,1.42-1.7,.02-3.08-1.16-3.11-2.65h0c-.02-1.49,1.33-2.71,3.03-2.74,62.53-.85,125.05-1.43,187.59-1.38,1.69,0,3.08,1.21,3.11,2.68h0Z"></path><path class="cls-17" d="M1128.87,802.2c0,1.47-1.38,2.65-3.08,2.61-28.14-.41-56.28-.73-84.43-.96-1.69-.01-3.06-1.23-3.05-2.71h0c0-1.49,1.39-2.68,3.08-2.66,28.14,.24,56.27,.56,84.41,.99,1.7,.03,3.07,1.25,3.07,2.73h0Z"></path><path class="cls-10" d="M899.24,712.35c.14,3-2.22,5.39-5.26,5.35-37.35-.35-74.67-.34-112.02,0-3.03,.04-5.59-2.36-5.73-5.34h0c-.15-2.99,2.19-5.45,5.22-5.48,37.35-.33,74.69-.35,112.04-.02,3.04,.03,5.62,2.5,5.76,5.5h0Z"></path><path class="cls-10" d="M970.69,735.06c.12,3.02-2.25,5.37-5.3,5.26-61.66-1.98-123.24-2.48-184.93-1.9-3.02,.03-5.59-2.36-5.73-5.35h0c-.14-2.99,2.2-5.45,5.21-5.48,61.7-.57,123.3-.09,184.98,1.79,3.06,.11,5.64,2.65,5.77,5.68h0Z"></path><path class="cls-17" d="M969.99,780.81c.06,1.5-1.27,2.63-2.98,2.55-62.86-2.41-125.61-3.01-188.51-2.36-1.7,.02-3.13-1.14-3.19-2.61h0c-.07-1.47,1.25-2.68,2.94-2.7,62.91-.65,125.66-.06,188.53,2.3,1.7,.08,3.14,1.34,3.2,2.82h0Z"></path><path class="cls-17" d="M969.13,760.34c.06,1.49-1.27,2.63-2.98,2.56-62.89-2.23-125.68-2.78-188.61-2.15-1.7,.02-3.12-1.15-3.18-2.61h0c-.08-1.48,1.24-2.69,2.93-2.72,62.94-.63,125.74-.08,188.65,2.1,1.7,.07,3.14,1.33,3.2,2.82h0Z"></path><path class="cls-17" d="M970.78,799.84c.06,1.49-1.27,2.63-2.97,2.55-62.84-2.58-125.54-3.23-188.42-2.56-1.7,.02-3.13-1.14-3.2-2.61h0c-.06-1.47,1.25-2.68,2.94-2.71,62.89-.67,125.6-.04,188.45,2.5,1.7,.08,3.13,1.34,3.19,2.83h0Z"></path><path class="cls-17" d="M899.2,817.42c.06,1.47-1.25,2.63-2.94,2.59-38.58-.7-77.09-.76-115.67-.3-1.69,.02-3.12-1.14-3.19-2.61h0c-.07-1.46,1.25-2.69,2.94-2.71,38.58-.46,77.09-.4,115.66,.28,1.7,.05,3.12,1.28,3.19,2.75h0Z"></path><path class="cls-10" d="M457.43,772.07c2.32,33.18,31.1,58.2,64.28,55.88,33.19-2.32,58.21-31.09,55.89-64.28-2.32-33.19-31.1-58.21-64.29-55.89l4.2,60.09-60.09,4.2Z"></path><path class="cls-23" d="M617.62,817.25c10.9,7.63,24.39,11.71,38.7,10.71,33.19-2.31,58.21-31.09,55.89-64.28-2.32-33.19-31.1-58.21-64.29-55.89l4.2,60.09-34.5,49.37Z"></path><rect class="cls-11" x="439.06" y="487.81" width="60.1" height="160.52"></rect><rect class="cls-10" x="521.25" y="452.84" width="60.1" height="195.52"></rect><rect class="cls-23" x="603.41" y="556.68" width="60.1" height="91.72"></rect><rect class="cls-20" x="685.63" y="404.27" width="60.1" height="244.17"></rect><path class="cls-19" d="M498.44,672.46c0,1.27-1.04,2.31-2.32,2.31l-54.8-.03c-1.28,0-2.31-1.04-2.31-2.32h0c0-1.28,1.04-2.32,2.31-2.32l54.79,.02c1.28,0,2.32,1.04,2.32,2.33h0Z"></path><path class="cls-19" d="M580.62,672.5c0,1.28-1.04,2.32-2.31,2.32l-54.8-.03c-1.28,0-2.32-1.04-2.31-2.32h0c0-1.28,1.04-2.32,2.32-2.33l54.79,.03c1.28,0,2.31,1.04,2.31,2.32h0Z"></path><path class="cls-19" d="M663.14,672.54c0,1.28-1.04,2.32-2.32,2.31l-54.79-.02c-1.28,0-2.32-1.04-2.32-2.32h0c0-1.28,1.04-2.32,2.32-2.32l54.79,.02c1.27,0,2.31,1.04,2.31,2.32h0Z"></path><path class="cls-19" d="M745.33,672.57c0,1.28-1.04,2.32-2.32,2.31l-54.79-.02c-1.28,0-2.32-1.04-2.32-2.32h0c0-1.28,1.04-2.32,2.32-2.32l54.79,.03c1.28,0,2.31,1.04,2.32,2.32h0Z"></path><path class="cls-20" d="M1231.62,425.28c-38.37,0-15.16,50.04-138.6,65.45-55.6,6.94-53.24,67.87-91.61,67.87s-55.64-12.06-79.71-5.39c-36.97,10.24-35.39,32.16-73.76,32.16-30.51,0-48.21-38.82-71.72-49.55v139.07h455.6s-.14-249.61-.21-249.61Z"></path><path class="cls-23" d="M1231.82,674.7c-.04-61.43-.14-219.67-.2-219.67-38.37,0-20.69,125.33-138.6,110.08-38.05-4.92-53.24,52.99-91.61,52.99s-46.3-29.27-79.71-14.31c-35.02,15.67-35.39,44.07-73.76,44.07-30.51,0-48.21-44.77-71.72-55.51v82.35h455.59Z"></path><path class="cls-11" d="M86.58,1100.83c6.45,13.38,20.42,25.06,30.66,16.87,9.66-7.73,8.9-30.01,1.83-42.86-16.64-30.23-48.99-32.43-48.99-32.43,7.95,16.49,10.05,45.04,16.5,58.42Z"></path><path class="cls-12" d="M117.24,1117.69c9.66-7.73,8.9-30.01,1.83-42.86-16.64-30.23-48.99-32.43-48.99-32.43,41.41,34.13,47.16,75.29,47.16,75.29Z"></path><g class="cls-29"><path class="cls-11" d="M115.92,1110.11s-.3-1.02-.85-2.87c-.26-.93-.6-2.06-1.06-3.32-.45-1.27-.91-2.76-1.56-4.3-.31-.78-.63-1.6-.97-2.45-.35-.85-.75-1.7-1.15-2.59-.77-1.81-1.73-3.62-2.68-5.57-2.01-3.81-4.38-7.84-7.04-11.86-5.36-8-10.74-14.53-14.66-19.2-3.96-4.62-6.41-7.47-6.41-7.47,0,0,2.59,2.61,6.64,7.07,4.04,4.47,9.57,10.83,14.98,18.9,2.68,4.05,5.04,8.16,7.01,12.06,.94,2,1.87,3.86,2.61,5.71,.38,.92,.77,1.79,1.1,2.66,.32,.87,.63,1.71,.92,2.52,.61,1.58,1.03,3.1,1.44,4.41,.42,1.3,.72,2.45,.95,3.4,.47,1.88,.74,2.93,.74,2.93Z"></path></g><path class="cls-11" d="M103.51,1083.36c1.23,28.82,13.33,57.55,31.33,46.01,16.99-10.89,28.14-54.59,25.8-82.62-5.5-65.99-47.07-84.18-47.07-84.18,1.51,35.51-11.28,91.98-10.05,120.8Z"></path><path class="cls-11" d="M176.23,1100c-8.78,11.98-24.64,20.92-33.22,11-8.09-9.36-3.28-31.13,6.01-42.48,21.87-26.7,54.08-22.97,54.08-22.97-10.82,14.77-18.08,42.46-26.86,54.44Z"></path><path class="cls-12" d="M143.01,1111.01c-8.09-9.36-3.28-31.13,6.01-42.48,21.87-26.7,54.08-22.97,54.08-22.97-46.94,26.02-60.08,65.45-60.08,65.45Z"></path><path class="cls-11" d="M134.84,1129.36c16.99-10.89,28.14-54.59,25.8-82.62-5.5-65.99-47.07-84.18-47.07-84.18,36.13,84.23,21.28,166.81,21.28,166.81Z"></path><path class="cls-12" d="M134.84,1129.36c16.99-10.89,28.14-54.59,25.8-82.62-5.5-65.99-47.07-84.18-47.07-84.18,36.13,84.23,21.28,166.81,21.28,166.81Z"></path><g class="cls-29"><path class="cls-11" d="M137.23,1114.04s.16-2.12,.45-5.96c.16-1.92,.33-4.26,.41-6.93,.1-2.67,.3-5.75,.28-9.04,.02-1.66,.03-3.39,.05-5.19,0-1.8-.07-3.62-.1-5.53-.03-3.85-.3-7.79-.51-12-.58-8.28-1.51-17.14-2.84-26.1-2.71-17.88-6.27-32.89-8.91-43.66-2.72-10.69-4.39-17.3-4.39-17.3,0,0,1.99,6.19,4.93,16.61,2.91,10.44,6.75,25.19,9.49,43.21,1.34,9.03,2.21,18.05,2.69,26.49,.15,4.29,.37,8.31,.33,12.24,0,1.95,.04,3.81,0,5.64-.06,1.84-.11,3.6-.16,5.29-.06,3.35-.33,6.48-.49,9.19-.15,2.71-.38,5.08-.59,7.02-.4,3.87-.62,6.01-.62,6.01Z"></path></g><path class="cls-5" d="M194.94,1136.63c-.27-11.71,2.84-18.87-11.2-21.74-4.15-.85-10.04,4.47-18.95,.56-12.68-12.65-12.66-21.79-26.04-21.79-15.53,0-24.91,15.49-24.91,33.26,0,3.39-.68,6.65,.16,9.71h80.94Z"></path><path class="cls-24" d="M574.68,1158.36c26.55,2.71,26.44,26.76-13.84,26.02-27.37-.5-53.76-.21-80.06-3.26-31.05-3.6-41.64,9.18-64.52,9.13-24.92-.05-66.06-5.03-66.29-13.65-.27-10.19,39.17-17.94,120.78-20.11,81.61-2.17,91.48,.59,103.93,1.86Z"></path><g class="cls-29"><path class="cls-16" d="M419.09,799.05h-22.38v107.44h43.31l-2.74-64.99c18.36,4.75,42,6.15,55.27,7.08,1.68,.14,5.08-.09,8.05-1.66,15.42-3.47,41.09-34.62,48.63-43.84,.09-.11,.16-.23,.22-.36,.02-.04,.03-.1,.05-.14,.03-.09,.07-.18,.09-.29,.01-.06,.02-.13,.03-.19,.01-.1,.03-.19,.03-.29,0-.07,0-.15,0-.23,0-.1,0-.2-.01-.31,0-.08-.02-.17-.04-.25-.02-.11-.03-.22-.05-.33-.02-.09-.04-.18-.07-.28-.03-.12-.06-.23-.09-.35-.03-.1-.06-.19-.09-.29-.04-.12-.08-.25-.13-.37-.04-.1-.08-.2-.12-.3-.05-.13-.1-.26-.16-.39-.04-.1-.09-.21-.14-.31-.06-.14-.12-.27-.19-.41-.05-.11-.1-.21-.16-.32-.07-.14-.14-.28-.22-.42-.06-.11-.12-.21-.17-.32-.08-.15-.16-.29-.25-.44-.06-.11-.12-.21-.19-.32-.03-.05-.06-.1-.09-.15,1.22-1.53,2.47-3.06,3.78-4.57,.18-.21,.38-.47,.59-.76,7.25-3.13,16.38-13.67,14.55-13.2-4.24,1.1-8.33,1.89-12.06,2.45,0-.03,0-.06,0-.09-.23,0-.6-.05-1.05-.16,42.16-6.34,79.47-35.27,94.44-78.34,21.49-61.84-11.22-129.39-73.05-150.88-61.84-21.49-129.39,11.22-150.88,73.05-6.62,19.04-8.09,38.63-5.15,57.24h.44v2.62c1.97,10.91,5.45,21.46,10.3,31.34-3.67,9.95-3.88,21.23,.24,31.91,.13,.33,.27,.65,.41,.98l-10.95,9.5v41.97Zm125.83-18.08c-5.32,.4-8.68,.32-8.68,.32,0,0,2.59,2.06,5,4.28-.5,.55-1.02,1.12-1.6,1.72-.88-.49-1.61-.61-2.04-.21-7.72,7.29-36.07,23.78-46.38,32.51-15.89-10.74-38.51-24.54-53.33-31.49l17.9-15.52c10.05,3.81,21.48,4.08,32.3-.1,.63-.24,1.24-.5,1.85-.76,2.27,.95,4.57,1.84,6.92,2.66,16.02,5.57,32.42,7.49,48.31,6.22-.08,.12-.17,.25-.25,.38Zm-106.72-152.47c18.73-53.89,77.6-82.39,131.48-63.66,53.89,18.73,82.39,77.6,63.66,131.48-18.73,53.89-77.59,82.39-131.48,63.66-53.89-18.73-82.39-77.59-63.66-131.48Z"></path></g><g><path class="cls-2" d="M535.05,735.44c-1.47,.09-7.95-2.4-8.33-1.46-1.61,4.06-6,9.1-15.54,18.54-8.55,8.45-33.22,20.92-41.16,29.46-7.94,8.55-.65,23.26,13.87,19.59,15.54-3.92,25.44-24.08,33.37-34.25,5.14-6.6,9.52-13.19,14.84-19.65,1.13-1.37,2.58-4.32,6.46-6.14-1.66,.78-2.96-1.06-3.51-6.08h0Z"></path><path class="cls-20" d="M517.67,743.46c-8.55,8.45-42.07,28.73-50,37.27-7.94,8.55,6.95,27.17,11.1,26.62,15.89-2.09,43.54-37.25,51.46-47.41,2.87-3.68-10.03-18.99-12.57-16.48Z"></path><path class="cls-21" d="M525.61,748.92c.81,1.87,1.27,3.91,1.3,5.76,.1,2.05-.3,3.97-1.21,5.76-.58,1.88-1.6,3.5-3.06,4.87-4.64,5.86-9.77,11.3-15.3,16.33-5.8,5.27-12.12,9.85-18.34,14.59-.65,.52-1.3,1.05-1.95,1.59-1.82,1.82-3.97,3.08-6.44,3.8-1.26,.19-2.52,.37-3.78,.56-1.99,.12-3.93-.3-5.73-1.07,2.87,3.82,6.08,6.46,7.68,6.25,15.89-2.09,43.54-37.25,51.46-47.41,1.49-1.91-1.27-6.96-4.63-11.02Z"></path><g><path d="M229.67,862.93l193.36-175.57c.22,.74,.42,1.48,.69,2.21,2.71,7.5,8.43,13.16,15.35,16.56,2.63,3.46,6,6.28,9.81,8.39l-194.42,176.51c-3.36,2.96-8.53,2.64-11.5-.72l-14.01-15.88c-2.96-3.36-2.64-8.53,.72-11.5Z"></path><path class="cls-18" d="M409.75,656.85c-.22,7.69,2.02,15.51,6.65,21.65,15.85,21.07,35.31,39.29,62,42.85-3.69,3.15-7.93,5.78-12.65,7.73-24.19,9.99-51.9-1.53-61.89-25.72-6.61-16.02-3.79-33.58,5.89-46.52Z"></path><path d="M409.44,657.1c-.22,7.69,2.02,15.51,6.65,21.65,15.85,21.07,35.31,39.29,62,42.85-3.69,3.15-7.93,5.78-12.65,7.73-24.19,9.99-51.9-1.53-61.89-25.72-6.62-16.02-3.79-33.58,5.89-46.52Z"></path><g><path d="M474.67,731.11c65.33,21.04,135.35-14.87,156.39-80.2,21.04-65.33-14.87-135.35-80.2-156.39-65.33-21.04-135.35,14.86-156.39,80.2-21.04,65.33,14.87,135.35,80.2,156.39Zm-64.99-151.49c18.34-56.93,79.35-88.22,136.29-69.89,56.93,18.34,88.22,79.35,69.89,136.29-18.33,56.93-79.35,88.22-136.29,69.89-56.93-18.33-88.22-79.35-69.89-136.29Z"></path><path class="cls-35" d="M409.68,579.62c18.34-56.93,79.35-88.22,136.29-69.89,56.93,18.34,88.22,79.35,69.89,136.29-18.33,56.93-79.35,88.22-136.29,69.89-56.93-18.33-88.22-79.35-69.89-136.29Z"></path><path class="cls-38" d="M545.96,509.73c56.93,18.34,88.22,79.35,69.89,136.29-18.33,56.93-79.35,88.22-136.29,69.89-56.93-18.33-88.22-79.35-69.89-136.29,18.34-56.93,79.35-88.22,136.29-69.89Z"></path></g><path class="cls-8" d="M406.85,632.05c-6.74-36.64,5.98-74.46,33.54-99.57-11.21,33.18-22.42,66.36-33.54,99.57Z"></path><path class="cls-8" d="M501.25,504.9c23.32-2.61,46.73,2.44,66.7,14.07-22.76,66.94-45.2,133.99-67.66,201.03-22.87-2.8-44.53-12.89-61.5-29,20.49-62.14,41.61-124.07,62.46-186.09Z"></path><path class="cls-8" d="M604.59,558.17c1.31,2.22,2.57,4.47,3.74,6.81,26.69,53.53,4.93,118.56-48.6,145.25-2.45,1.22-4.92,2.3-7.41,3.32,17.35-51.82,34.74-103.62,52.27-155.38Z"></path></g><path class="cls-2" d="M523.97,744.17c-2.8-2.94-7.86-6.76-7.86-6.76,0,0,14.75,.04,31.54-4.74,2.06-.59-8.99,12.64-16.72,14.86"></path><path class="cls-2" d="M327.47,763.41s-3.14,1.15-7.41,2.42c-4.28,1.26-9.68,2.65-14.42,3.14-1.11,.11-2.11-.7-2.22-1.81-.11-1.11,.7-2.11,1.81-2.22,4.27-.43,9.54-1.77,13.68-2.99,2.07-.61,3.87-1.2,5.15-1.63,.64-.22,1.15-.4,1.49-.52,.17-.06,.31-.11,.4-.14,.09-.03,.13-.05,.13-.05,1.05-.39,2.21,.15,2.6,1.2,.39,1.05-.15,2.21-1.2,2.6h0Z"></path><path class="cls-2" d="M315.71,761.85c.5,1.47-2.17,5.76-2.9,6.14-3.15,1.64-5.36,.43-10.36,10.02-4.48,8.6-26.14,40.97-30.96,48.95,0,0-16.54,2.32-14.59-10.35,1.92-12.49,18.85-33.07,25.18-41.06,4.11-5.18,10.94-9.58,15.85-14.01,5.93-5.35,4.13,1.91,6.47-2.29,1.88,2.09-1.46,3.69-.92,4.92,.92,2.12,3.01-6.53,6.12-6.21"></path><path class="cls-20" d="M288.87,768.95c-2.53,2.09-4.93,4.26-6.79,6.6-6.33,7.99-23.26,28.57-25.18,41.06-1.95,12.67,18.5,11.32,18.5,11.32,4.33-7.18,21.84-36.9,28.66-48.49-1.74-.32-14.63-6.29-15.19-10.49Z"></path><path class="cls-21" d="M288.87,768.95c-2.53,2.09-4.93,4.26-6.79,6.6-6.33,7.99-23.26,28.57-25.18,41.06-1.95,12.67,18.5,11.32,18.5,11.32,4.33-7.18,21.84-36.9,28.66-48.49-1.74-.32-14.63-6.29-15.19-10.49Z"></path><path class="cls-2" d="M303.71,771.01c4.73-.23,14.77-4.68,14.77-4.68l-.67-4.22c-1.18-2.37,3.36-8.89,5.7-11.95,0,0-9.12-11.75-28.83,14.95"></path><path class="cls-20" d="M483.93,788.23c-17.45-12.96-70.19-44.28-83.53-45.61-6.61-.66-11.74,1.52-11.74,1.52-2.06,2.75-2.66,40.73-1.68,43.27,7.2,18.67,61.48,20.48,84.94,21.57,10.35,.48,20.06-14.78,12.01-20.76h0Z"></path><path class="cls-21" d="M402.88,763.25c-.28-6.08-5.69,11.33-11.83,10.19,.06,.46-4.23,13.56-4.07,13.97,7.2,18.67,60.55,20.16,84.94,21.57,3.2,.19,12.35-1.01,13.68-9.46-5.7,5.29-23.37,4.36-39.51,2.58-29.79-3.29-32.34-8.64-32.71-16.81l-10.5-22.05Z"></path><path class="cls-3" d="M393.97,1118.67c-3.31,.15-19.24,6.29-19.24,6.29l9.38,41.36,18.47-10s-6.24-37.77-8.61-37.66Z"></path><polygon points="412.04 890.91 409.26 1006.18 354.9 1015.84 334.27 881.01 412.04 890.91"></polygon><path d="M354.91,1013.03l54.6-11.59s-7.52,136.04-7.98,142.25c-.46,6.21-25.84,8.26-27.44-6.45-1.6-14.71-17.6-96.33-19.18-124.21Z"></path><path class="cls-3" d="M246.52,1122.86c3.22,.76,17.74,9.74,17.74,9.74l-17.31,38.81-15.85-13.13s13.1-35.97,15.41-35.42Z"></path><path class="cls-9" d="M249.92,1163.91c4.31,2.49,2.58,14.13-.39,17.96-2.97,3.83-42.77-5.13-41.26-12.26,1.52-7.13,4.09-6.88,12.95-6.41,3.69,.2,8.48,.13,15.36,2.54,8.81,3.08,8.92-4.39,13.34-1.83h0Z"></path><path d="M250.44,1160.88c4.27,2.48,3.45,14.29,.5,18.12-2.95,3.83-42.8-3.58-41.29-10.71,1.51-7.13,5.28-9.52,7.8-9.04,10.64,2.04,8.35-2.97,14.95-.86,12.18,3.91,13.67-.07,18.05,2.48h0Z"></path><path class="cls-9" d="M380.97,1157.84c-5.28,1.5-6.25,13.24-3.95,17.62,2.29,4.38,57.33,2.27,57.42-5.01,.09-7.29-12.41-5.66-22.15-7.11-4.05-.6-9.23-1.7-17.29-.84-10.31,1.1-8.61-6.21-14.03-4.66h0Z"></path><path d="M381.14,1154.76c-5.24,1.5-7.22,13.21-4.95,17.59,2.27,4.38,56.98,3.8,57.08-3.49,.1-7.29-13.06-8.49-15.92-8.57-12.04-.3-8.34-4.7-16.02-4.06-14.17,1.19-14.82-3.02-20.19-1.47h0Z"></path><path d="M321.51,1033.24l-54.09-6.72s-30.25,109.63-31.8,115.66c-1.55,6.03,21.85,16.08,28.06,2.65,6.21-13.43,47.42-85.68,57.82-111.59Z"></path><polygon points="372.38 929.75 321.64 1033.23 267.42 1026.52 308.87 900.64 372.38 929.75"></polygon><polygon points="413.41 911.91 408.25 871.21 354 860.91 363.4 924.34 413.41 911.91"></polygon><path class="cls-20" d="M416.47,911.16s-37.7,27.87-101.94,7.44l.92-10.37c60.89,12.99,98.99-13.98,98.99-13.98l2.03,16.91Z"></path><path class="cls-4" d="M381.06,744.47l-2.95-30.13-28.64-4.74-1.35,23.98c-.05,.26-1.85,7.74-1.87,8.04-.23,4.06,6.2,10.69,18.69,12.21,11.43,1.39,15.9-5.3,16.13-9.36Z"></path><path d="M268.84,799.78c-.27-.11-.54-.23-.81-.35,.52,.32,1.05,.63,1.55,.97,.41,.14,0-.31-.74-.62Z"></path><path class="cls-28" d="M374.61,725.26c-3.6-3.81-17.95-5.06-21.07-9.53l24.97,4.13,1.14,10.89c-3.51-2.62-5.04-5.49-5.04-5.49Z"></path><path class="cls-4" d="M348.55,726.41c-2.61-13.24,.63-43.71,12.39-46.03,11.77-2.32,20.87,4.09,25.53,26.17,1.36,6.42,.34,17.06-7.95,18.65-1.3,.25-2.63,.12-3.92,.05"></path><path class="cls-22" d="M381.71,691.54c-21.35,9.83-18.62-5.51-20.3-12.73-1.68-7.21,12.71-10.95,17.3-6.07,9.58,10.19,2.99,18.8,2.99,18.8Z"></path><path class="cls-22" d="M369.72,710.07c14.32,.12,8.1-31.17,1.88-35.21-10.15-6.59-35.44,1.9-35.68,23.49l33.8,11.71Z"></path><path class="cls-22" d="M356.47,686.9c5.3-1.45,15.08-2.81,17.85,30.73,0,0,3.44,12.8-17.49,10.86-9.03-.84-18.14-14.87-19.96-21.76-2.85-10.77,.85-22.82,7.14-24.28,6.28-1.46,.48,7.73,12.46,4.44Z"></path><path class="cls-2" d="M378.46,705.3c1.02,2.49,.35,5.13-1.5,5.89-1.85,.76-4.19-.64-5.21-3.13-1.02-2.49-.35-5.13,1.5-5.89,1.85-.76,4.19,.64,5.21,3.13Z"></path><path class="cls-1" d="M353.4,747.97s-41.2,67.78-98.43,66.12l-22.47,16.11,26.97,16.62s89.49-19.24,98.39-98.24l-4.46-.61Z"></path><path class="cls-20" d="M301.27,757.06c-23.95,24.13-36.06,37.19-39.22,41.14-5.93,7.41-6.51,30.94,10.17,29.14,25.55-2.75,25.31-18.62,45.21-32.95,7.98-5.74,21.84-26.89,14.6-44.66-7.5-18.43-30.76,7.33-30.76,7.33h0Z"></path><path class="cls-21" d="M332.03,749.73c-.77-1.88-1.7-3.3-2.75-4.33-.13,1.26-.43,2.49-.92,3.66-2.1,4.99-4.12,10-6.23,14.98-3.88,9.14-8.18,18.19-13.61,26.52-5.61,8.61-12.83,16.37-21,22.59-6.56,4.99-15.27,4.05-20.74-2.08-4.01-4.5-4.24-11.66-1.29-16.84-1.6,1.78-2.74,3.1-3.44,3.97-5.93,7.41-6.51,30.94,10.17,29.14,25.55-2.75,25.31-18.62,45.21-32.95,7.98-5.74,21.84-26.89,14.6-44.66Z"></path><path class="cls-22" d="M386.75,705.48c.4-.06,2.42,12.7-3.51,17.93-3.51,3.09-8.48,2.56-7.26-1.78,2.98-10.58-.4-25.17,1.68-25.98,1.35-.53,2.42,13.93,3.69,14.66,2.25,1.28,.34-4.09,5.4-4.82Z"></path><path class="cls-20" d="M421.27,917.12l-11.09-170.22s-17.98-10.15-26.71-7.99c0,0-1.47,5.17-6.01,9.51-32.36,13.52-23.61-14.69-56.71-3.96-3.48,1.13-14.81,122.87-66.29,165.11-5.33,4.37,27.26,3.03,48.06,13.44,20.01,11.72,89.16,3.25,95.23,2.47,11.89,.02,23.52-8.37,23.52-8.37Z"></path><path class="cls-20" d="M344.83,734.67s-5.46,8.81-2.09,10.7c3.37,1.9,21.34,15.25,41.54,.05,3.13-2.36-2.58-9.95-2.58-9.95,0,0-5.73,3.98-18.11,2.96-12.38-1.02-18.76-3.77-18.76-3.77Z"></path></g></g></g></g></svg>